<?xml version="1.0" encoding="utf-8"?>
<!-- Generator: Adobe Illustrator 15.0.0, SVG Export Plug-In . SVG Version: 6.00 Build 0)  -->
<!DOCTYPE svg PUBLIC "-//W3C//DTD SVG 1.1//EN" "http://www.w3.org/Graphics/SVG/1.1/DTD/svg11.dtd">
<svg version="1.1" id="Layer_1" xmlns="http://www.w3.org/2000/svg" xmlns:xlink="http://www.w3.org/1999/xlink" x="0px" y="0px"
	 width="40px" height="40px" viewBox="0 0 40 40" enable-background="new 0 0 40 40" xml:space="preserve">
<path fill="#FFFFFF" d="M20,0C8.954,0,0,8.954,0,20s8.954,20,20,20s20-8.954,20-20S31.046,0,20,0z M32.799,13.693
	c-0.583,0.946-1.439,1.803-2.322,2.464v0.428c0.039,2.037-0.453,4.074-1.297,5.929c-2.334,5.162-7.173,8.197-12.828,8.197
	c-2.257,0-4.488-0.545-6.486-1.582c-0.376-0.195-0.791-0.402-1.128-0.648c-0.117-0.09-0.195-0.207-0.195-0.351
	c0-0.221,0.182-0.415,0.415-0.415c0.376,0,0.765,0.064,1.155,0.064c1.712,0,3.398-0.467,4.864-1.375
	c-1.79-0.415-3.217-1.738-3.788-3.488c-0.012-0.053-0.026-0.092-0.026-0.145c0-0.207,0.182-0.401,0.402-0.401
	c0.117,0,0.221,0.039,0.338,0.052c-1.53-0.945-2.53-2.633-2.53-4.448c0-0.273,0.234-0.468,0.506-0.468
	c0.221,0,0.597,0.247,0.843,0.325c-0.778-0.934-1.193-2.115-1.193-3.321c0-0.83,0.246-1.946,0.713-2.633
	c0.065-0.104,0.182-0.208,0.325-0.208c0.156,0,0.246,0.039,0.35,0.156c0.467,0.518,0.908,1.024,1.428,1.491
	c2.127,1.908,4.837,3.101,7.691,3.347c-0.039-0.207-0.052-0.428-0.052-0.636c0-2.892,2.36-5.24,5.241-5.24
	c1.36,0,2.684,0.545,3.657,1.479c0.985-0.208,1.829-0.584,2.711-1.064c0.064-0.038,0.142-0.064,0.207-0.064
	c0.233,0,0.416,0.195,0.416,0.415c0,0.468-0.714,1.57-1.024,1.933c0.233-0.065,1.127-0.441,1.259-0.441
	c0.233,0,0.413,0.195,0.413,0.415C32.863,13.551,32.839,13.629,32.799,13.693z"/>
</svg>
