<?xml version="1.0" encoding="utf-8"?>
<!-- Generator: Adobe Illustrator 15.0.0, SVG Export Plug-In . SVG Version: 6.00 Build 0)  -->
<!DOCTYPE svg PUBLIC "-//W3C//DTD SVG 1.1//EN" "http://www.w3.org/Graphics/SVG/1.1/DTD/svg11.dtd">
<svg version="1.1" id="Layer_1" xmlns="http://www.w3.org/2000/svg" xmlns:xlink="http://www.w3.org/1999/xlink" x="0px" y="0px"
	 width="40px" height="40px" viewBox="0 0 40 40" enable-background="new 0 0 40 40" xml:space="preserve">
<g>
	<path fill="#FFFFFF" d="M25.353,39.254c-0.673,0.188-1.362,0.333-2.061,0.452C23.992,39.59,24.68,39.44,25.353,39.254z"/>
	<path fill="#FFFFFF" d="M22.442,39.836c-0.235,0.03-0.473,0.055-0.71,0.076C21.971,39.892,22.207,39.865,22.442,39.836z"/>
	<path fill="#FFFFFF" d="M20,0C8.954,0,0,8.954,0,20c0,10.811,8.582,19.594,19.302,19.965V25.188h-5.108v-5.812h5.108v-1.803
		c0-0.978,0-1.487,0-2.778c0-1.29,0.28-7.604,7.58-7.604c3.599,0,4.481,0.204,4.481,0.204v5.228c0,0-1.12,0-1.969,0
		c-0.85,0-4.02-0.251-4.02,3.054c0,1.562,0.001,1.896,0.001,1.896v1.803h5.782l-0.749,5.812h-5.033v14.061
		C33.807,36.896,40,29.181,40,20C40,8.954,31.046,0,20,0z"/>
</g>
</svg>
